HIERARCHY
ROOT hip
{
  OFFSET 0 0 0
  CHANNELS 6 Xposition Yposition Zposition Zrotation Yrotation Xrotation
  JOINT abdomen
  {
    OFFSET 0 20.6881 -0.73152
    CHANNELS 3 Zrotation Xrotation Yrotation
    JOINT chest
    {
      OFFSET 0 11.7043 -0.48768
      CHANNELS 3 Zrotation Xrotation Yrotation
      JOINT neck
      {
        OFFSET 0 22.1894 -2.19456
        CHANNELS 3 Zrotation Xrotation Yrotation
        JOINT head
        {
          OFFSET -0.24384 7.07133 1.2192
          CHANNELS 3 Zrotation Xrotation Yrotation
          JOINT leftEye
          {
            OFFSET 4.14528 8.04674 8.04672
            CHANNELS 3 Zrotation Xrotation Yrotation
            End Site
            {
              OFFSET 1 0 0
            }
          }
          JOINT rightEye
          {
            OFFSET -3.6576 8.04674 8.04672
            CHANNELS 3 Zrotation Xrotation Yrotation
            End Site
            {
              OFFSET 1 0 0
            }
          }
        }
      }
      JOINT rCollar
      {
        OFFSET -2.68224 19.2634 -4.8768
        CHANNELS 3 Zrotation Xrotation Yrotation
        JOINT rShldr
        {
          OFFSET -8.77824 -1.95073 1.46304
          CHANNELS 3 Zrotation Xrotation Yrotation
          JOINT rForeArm
          {
            OFFSET -28.1742 -1.7115 0.48768
            CHANNELS 3 Zrotation Xrotation Yrotation
            JOINT rHand
            {
              OFFSET -22.5879 0.773209 7.07136
              CHANNELS 3 Zrotation Xrotation Yrotation
              JOINT rThumb1
              {
                OFFSET -1.2192 -0.487915 3.41376
                CHANNELS 3 Zrotation Xrotation Yrotation
                JOINT rThumb2
                {
                  OFFSET -3.37035 -0.52449 3.41376
                  CHANNELS 3 Zrotation Xrotation Yrotation
                  End Site
                  {
                    OFFSET -1.78271 -1.18214 1.43049
                  }
                }
              }
              JOINT rIndex1
              {
                OFFSET -7.75947 0.938293 5.60832
                CHANNELS 3 Zrotation Xrotation Yrotation
                JOINT rIndex2
                {
                  OFFSET -2.54057 -0.884171 1.56538
                  CHANNELS 3 Zrotation Xrotation Yrotation
                  End Site
                  {
                    OFFSET -1.62519 -0.234802 1.16502
                  }
                }
              }
              JOINT rMid1
              {
                OFFSET -8.24714 1.18213 3.41376
                CHANNELS 3 Zrotation Xrotation Yrotation
                JOINT rMid2
                {
                  OFFSET -3.10165 -0.590103 1.0647
                  CHANNELS 3 Zrotation Xrotation Yrotation
                  End Site
                  {
                    OFFSET -2.48547 -0.328903 0.83742
                  }
                }
              }
              JOINT rRing1
              {
                OFFSET -8.82822 0.546677 1.51678
                CHANNELS 3 Zrotation Xrotation Yrotation
                JOINT rRing2
                {
                  OFFSET -2.60934 -0.819778 -0.0198488
                  CHANNELS 3 Zrotation Xrotation Yrotation
                  End Site
                  {
                    OFFSET -2.33842 -0.294052 0.168128
                  }
                }
              }
              JOINT rPinky1
              {
                OFFSET -8.27202 -0.0477905 -0.4584
                CHANNELS 3 Zrotation Xrotation Yrotation
                JOINT rPinky2
                {
                  OFFSET -1.82734 -0.647385 -0.700984
                  CHANNELS 3 Zrotation Xrotation Yrotation
                  End Site
                  {
                    OFFSET -1.69225 -0.51767 -0.607171
                  }
                }
              }
            }
          }
        }
      }
      JOINT lCollar
      {
        OFFSET 2.68224 19.2634 -4.8768
        CHANNELS 3 Zrotation Xrotation Yrotation
        JOINT lShldr
        {
          OFFSET 8.77824 -1.95073 1.46304
          CHANNELS 3 Zrotation Xrotation Yrotation
          JOINT lForeArm
          {
            OFFSET 28.1742 -1.7115 0.48768
            CHANNELS 3 Zrotation Xrotation Yrotation
            JOINT lHand
            {
              OFFSET 22.5879 0.773209 7.07136
              CHANNELS 3 Zrotation Xrotation Yrotation
              JOINT lThumb1
              {
                OFFSET 1.2192 -0.487915 3.41376
                CHANNELS 3 Zrotation Xrotation Yrotation
                JOINT lThumb2
                {
                  OFFSET 3.37035 -0.52449 3.41376
                  CHANNELS 3 Zrotation Xrotation Yrotation
                  End Site
                  {
                    OFFSET 1.78271 -1.18214 1.43049
                  }
                }
              }
              JOINT lIndex1
              {
                OFFSET 7.75947 0.938293 5.60832
                CHANNELS 3 Zrotation Xrotation Yrotation
                JOINT lIndex2
                {
                  OFFSET 2.54057 -0.884171 1.56538
                  CHANNELS 3 Zrotation Xrotation Yrotation
                  End Site
                  {
                    OFFSET 1.62519 -0.234802 1.16502
                  }
                }
              }
              JOINT lMid1
              {
                OFFSET 8.24714 1.18213 3.41376
                CHANNELS 3 Zrotation Xrotation Yrotation
                JOINT lMid2
                {
                  OFFSET 3.10165 -0.590103 1.0647
                  CHANNELS 3 Zrotation Xrotation Yrotation
                  End Site
                  {
                    OFFSET 2.48547 -0.328903 0.83742
                  }
                }
              }
              JOINT lRing1
              {
                OFFSET 8.82822 0.546677 1.51678
                CHANNELS 3 Zrotation Xrotation Yrotation
                JOINT lRing2
                {
                  OFFSET 2.60934 -0.819778 -0.0198488
                  CHANNELS 3 Zrotation Xrotation Yrotation
                  End Site
                  {
                    OFFSET 2.33842 -0.294052 0.168128
                  }
                }
              }
              JOINT lPinky1
              {
                OFFSET 8.27202 -0.0477905 -0.4584
                CHANNELS 3 Zrotation Xrotation Yrotation
                JOINT lPinky2
                {
                  OFFSET 1.82734 -0.647385 -0.700984
                  CHANNELS 3 Zrotation Xrotation Yrotation
                  End Site
                  {
                    OFFSET 1.69225 -0.51767 -0.607171
                  }
                }
              }
            }
          }
        }
      }
    }
  }
  JOINT rButtock
  {
    OFFSET -8.77824 4.35084 1.2192
    CHANNELS 3 Zrotation Xrotation Yrotation
    JOINT rThigh
    {
      OFFSET 0 -1.70687 -2.19456
      CHANNELS 3 Zrotation Xrotation Yrotation
      JOINT rShin
      {
        OFFSET 0 -36.8199 0.73152
        CHANNELS 3 Zrotation Xrotation Yrotation
        JOINT rFoot
        {
          OFFSET 0.73152 -45.1104 -5.12064
          CHANNELS 3 Zrotation Xrotation Yrotation
          End Site
          {
            OFFSET -1.1221 -3.69964 12.103
          }
        }
      }
    }
  }
  JOINT lButtock
  {
    OFFSET 8.77824 4.35084 1.2192
    CHANNELS 3 Zrotation Xrotation Yrotation
    JOINT lThigh
    {
      OFFSET 0 -1.70687 -2.19456
      CHANNELS 3 Zrotation Xrotation Yrotation
      JOINT lShin
      {
        OFFSET 0 -36.8199 0.73152
        CHANNELS 3 Zrotation Xrotation Yrotation
        JOINT lFoot
        {
          OFFSET -0.73152 -45.1104 -5.12064
          CHANNELS 3 Zrotation Xrotation Yrotation
          End Site
          {
            OFFSET 1.1221 -3.69964 12.103
          }
        }
      }
    }
  }
}
MOTION
Frames:	5
Frame Time:	0.00833333
-65.9196 70.063 231.601 0.0 0.0 0.0 1.57504 -0.00270789 0.0428963 0.434167 0.00151625 0.0751876 -1.22494e-14 0.0 -4.96962e-17 -3.70081e-14 3.18055e-15 -1.49089e-16 -0.0 0.0 0.0 -0.0 0.0 0.0 -6.01481e-15 -7.95915e-18 9.93923e-17 -1.26489e-13 -2.67117e-16 -1.98785e-16 -2.21799e-12 6.55393e-13 -6.36111e-15 -2.53445e-11 -6.9351e-13 -1.17681e-13 -5.97918e-11 -8.32469e-14 -2.60805e-13 -1.03266e-10 -1.43125e-13 -4.50048e-13 -5.97865e-11 -8.0309e-14 -2.73528e-13 7.73091 5.47488 0.417314 -5.97915e-11 -8.31914e-14 -2.60805e-13 2.90554 0.965183 0.102902 -5.97858e-11 -8.29926e-14 -2.5842e-13 10.2786 0.731801 0.0259123 -5.97952e-11 -8.18993e-14 -2.51264e-13 2.22167 -0.733487 -0.20892 -6.11146e-15 -7.76503e-18 -1.49089e-16 -1.30017e-13 -8.69683e-17 -1.98785e-15 -2.21337e-12 -6.70501e-13 2.8625e-14 -2.53534e-11 6.33825e-13 -1.43125e-13 -5.97977e-11 -7.91349e-14 -2.51264e-13 -1.03254e-10 -1.39944e-13 -4.16653e-13 -5.9804e-11 -7.83212e-14 -2.41722e-13 -7.73091 5.47488 -0.417314 -5.97975e-11 -7.94145e-14 -2.54444e-13 -2.90554 0.965183 -0.102902 -5.98053e-11 -7.88181e-14 -2.48083e-13 -10.2786 0.731801 -0.0259123 -5.97932e-11 -7.7526e-14 -2.57625e-13 -2.22167 -0.733487 0.20892 -2.03217e-16 0.0 -3.88251e-19 1.70444 -6.60405 -0.159312 0.00258965 6.39973 0.0733876 -0.527595 0.19972 0.06404 2.03217e-16 0.0 3.88251e-19 0.691839 -1.9236 0.0055847 0.00917881 -2.07857 0.0757573 0.503157 3.99746 -0.138984
-65.1616 66.8783 227.534 -176.662 -4.9243 -154.831 4.11766 4.5124 0.655867 0.120743 -2.48636 0.213579 -1.19656 -0.355492 -1.34031 1.81297 -9.25533 -2.23372 -0.0 0.0 0.0 -0.0 0.0 0.0 4.05021e-14 -9.00816e-14 1.6411e-14 20.7796 11.4668 -0.83638 -22.8025 -20.707 15.0059 0.00783023 -1.98394 -0.278245 3.7371e-10 3.65961e-09 -2.17598e-09 6.57809e-10 6.29171e-09 -3.75841e-09 3.73715e-10 3.65961e-09 -2.17599e-09 7.73091 5.47488 0.417314 3.7371e-10 3.6596e-09 -2.17598e-09 2.90554 0.965183 0.102902 3.73715e-10 3.6596e-09 -2.17598e-09 10.2786 0.731801 0.0259123 3.73706e-10 3.6596e-09 -2.17597e-09 2.22167 -0.733487 -0.20892 4.03981e-14 -9.00786e-14 1.61874e-14 -23.4864 11.9816 8.66177 23.2866 -21.1591 -14.8352 -0.0372272 -4.28315 0.595903 1.99213e-10 9.55874e-10 1.56186e-09 3.24754e-10 1.62888e-09 2.70316e-09 1.99207e-10 9.55875e-10 1.56188e-09 -7.73091 5.47488 -0.417314 1.99214e-10 9.55874e-10 1.56186e-09 -2.90554 0.965183 -0.102902 1.99207e-10 9.55875e-10 1.56186e-09 -10.2786 0.731801 -0.0259123 1.99216e-10 9.55877e-10 1.56186e-09 -2.22167 -0.733487 0.20892 -2.03217e-16 0.0 -3.88251e-19 3.89808 -5.48747 -0.291495 0.12525 18.5287 0.36373 -0.634235 8.46348 -0.755799 2.03217e-16 0.0 3.88251e-19 1.33966 -23.1032 2.33639 0.104411 17.7781 -0.157066 0.20086 1.38448 -3.08084
-65.1055 66.9776 224.946 -176.7 -5.2878 -155.244 6.78846 9.2717 1.35943 -0.219398 -5.11057 0.372391 -2.48632 -0.737129 -2.76408 2.89889 -18.9749 -4.8082 -0.0 0.0 0.0 -0.0 0.0 0.0 9.21028e-14 -1.91436e-13 3.52563e-14 43.056 23.6808 -1.75478 -33.238 -37.725 37.5398 -0.00493202 -4.0479 -0.568857 8.5449e-10 7.71416e-09 -4.60909e-09 1.50205e-09 1.32622e-08 -7.96088e-09 8.54496e-10 7.71416e-09 -4.60909e-09 7.73091 5.47488 0.417314 8.5449e-10 7.71415e-09 -4.60909e-09 2.90554 0.965183 0.102902 8.54494e-10 7.71415e-09 -4.60909e-09 10.2786 0.731801 0.0259123 8.54487e-10 7.71416e-09 -4.60908e-09 2.22167 -0.733487 -0.20892 9.19903e-14 -1.9143e-13 3.50575e-14 -52.5358 23.6905 19.2564 33.8009 -38.4091 -37.3812 0.0212992 -8.7983 1.23546 4.85234e-10 2.02183e-09 3.31232e-09 7.9708e-10 3.44504e-09 5.73261e-09 4.8523e-10 2.02183e-09 3.31234e-09 -7.73091 5.47488 -0.417314 4.85236e-10 2.02183e-09 3.31233e-09 -2.90554 0.965183 -0.102902 4.85231e-10 2.02183e-09 3.31232e-09 -10.2786 0.731801 -0.0259123 4.85237e-10 2.02183e-09 3.31232e-09 -2.22167 -0.733487 0.20892 -2.03217e-16 0.0 -3.88251e-19 6.30929 -4.09016 -0.350232 0.104366 31.019 0.739415 -0.472314 17.3163 -1.68128 2.03217e-16 0.0 3.88251e-19 4.76248 -45.5307 6.36892 0.420583 38.802 -0.49871 -0.394512 -1.23066 -6.18022
-65.1064 66.9559 222.421 -176.98 -5.6232 -155.435 8.90598 13.5361 1.92932 -0.469758 -7.46188 0.493941 -3.63955 -1.06414 -4.02156 3.04406 -27.586 -7.46676 -0.0 0.0 0.0 -0.0 0.0 0.0 1.33536e-13 -2.70229e-13 4.90342e-14 63.523 34.3679 -2.97955 -30.5698 -41.921 64.1747 -0.0345814 -5.95125 -0.838757 1.24071e-09 1.0979e-08 -6.52742e-09 2.17996e-09 1.88754e-08 -1.12743e-08 1.24072e-09 1.0979e-08 -6.52742e-09 7.73091 5.47488 0.417314 1.24071e-09 1.0979e-08 -6.52742e-09 2.90554 0.965183 0.102902 1.24072e-09 1.0979e-08 -6.52742e-09 10.2786 0.731801 0.0259123 1.24071e-09 1.0979e-08 -6.52741e-09 2.22167 -0.733487 -0.20892 1.33417e-13 -2.7022e-13 4.88603e-14 -82.5514 32.3658 30.5378 30.8376 -42.9937 -64.8116 0.161389 -12.8438 1.82848 7.17234e-10 2.86778e-09 4.68609e-09 1.18077e-09 4.88693e-09 8.11031e-09 7.1723e-10 2.86778e-09 4.68612e-09 -7.73091 5.47488 -0.417314 7.17236e-10 2.86778e-09 4.68609e-09 -2.90554 0.965183 -0.102902 7.17233e-10 2.86778e-09 4.68609e-09 -10.2786 0.731801 -0.0259123 7.17235e-10 2.86779e-09 4.68608e-09 -2.22167 -0.733487 0.20892 -2.03217e-16 0.0 -3.88251e-19 8.30084 -3.25432 -0.554864 -0.121591 42.7813 1.21098 -0.0769742 24.9703 -2.6154 2.03217e-16 0.0 3.88251e-19 13.7103 -64.7328 15.2241 1.09808 57.4868 -1.11655 -1.20628 -3.78859 -8.98232
-65.1469 66.9272 219.857 -177.401 -5.7783 -155.63 9.88482 16.5712 2.11306 -0.526184 -9.13122 0.518464 -4.41443 -1.25696 -4.86267 2.61022 -33.5991 -9.61351 -0.0 0.0 0.0 -0.0 0.0 0.0 1.49551e-13 -2.92616e-13 5.01434e-14 78.7584 41.2515 -4.62173 -28.3838 -37.3102 79.2237 -0.0686252 -7.45353 -1.05353 1.39054e-09 1.22695e-08 -7.1588e-09 2.44203e-09 2.10956e-08 -1.23652e-08 1.39054e-09 1.22695e-08 -7.1588e-09 7.73091 5.47488 0.417314 1.39054e-09 1.22695e-08 -7.15881e-09 2.90554 0.965183 0.102902 1.39054e-09 1.22695e-08 -7.1588e-09 10.2786 0.731801 0.0259123 1.39053e-09 1.22695e-08 -7.1588e-09 2.22167 -0.733487 -0.20892 1.49431e-13 -2.92607e-13 4.99943e-14 -105.577 37.1725 38.9752 28.2692 -38.6297 -81.4996 0.313029 -15.7205 2.26713 8.14178e-10 3.16373e-09 5.11812e-09 1.34287e-09 5.39315e-09 8.85868e-09 8.14175e-10 3.16373e-09 5.11815e-09 -7.73091 5.47488 -0.417314 8.1418e-10 3.16373e-09 5.11813e-09 -2.90554 0.965183 -0.102902 8.14178e-10 3.16373e-09 5.11812e-09 -10.2786 0.731801 -0.0259123 8.14179e-10 3.16373e-09 5.11812e-09 -2.22167 -0.733487 0.20892 -2.03217e-16 0.0 -3.88251e-19 9.22979 -3.82183 -1.12472 -0.548683 52.7278 1.74985 0.312254 29.6481 -3.34547 2.03217e-16 0.0 3.88251e-19 31.9685 -76.1369 33.4581 2.27427 70.3263 -2.20596 -2.06709 -6.24982 -11.0248
